<svg xmlns="http://www.w3.org/2000/svg" viewBox="0 0 71.4 55.15"><path d="M21.34,40.51c-5.12,0-10.25,0-15.37,0A6.21,6.21,0,0,1,.28,36.13c-.08-.25-.19-.5-.28-.76V27.56H21.33Z" style="fill:#00c6fe"/><path d="M21.33,27.57H0V19.75c.12-.31.25-.63.37-.95a6.21,6.21,0,0,1,5.79-4.17c5.06,0,10.13,0,15.19,0l0,12.94Z" style="fill:#2ca0fe"/><path d="M21.34,40.51V27.57H42.44a5,5,0,0,1,.07.54q0,12.3,0,24.59a2.15,2.15,0,0,1-3.66,1.83L23.63,42.33Z" style="fill:#c61a0e"/><path d="M42.44,27.55H21.38l0-12.94L38.82.66A2.15,2.15,0,0,1,41.74.5a2.32,2.32,0,0,1,.72,2q0,7.95,0,15.89C42.45,21.41,42.44,24.48,42.44,27.55Z" style="fill:#e43f37"/><path d="M71.4,27.57A42.91,42.91,0,0,1,68,44.64c-.64,1.54-1.42,3-2.17,4.51a2.12,2.12,0,1,1-3.71-2,40.31,40.31,0,0,0,4.79-14.79c.19-1.58.22-3.19.32-4.79Z" style="fill:#ea6b77"/><path d="M71.4,27.57H67.25A39.12,39.12,0,0,0,64.82,13.9c-.77-2.05-1.77-4-2.7-6a2.1,2.1,0,0,1,1.35-3.12,2,2,0,0,1,2.15.89c.95,1.84,1.9,3.68,2.69,5.58a42.22,42.22,0,0,1,2.8,11C71.32,24,71.31,25.79,71.4,27.57Z" style="fill:#fea3a8"/><path d="M61.92,27.57a33.4,33.4,0,0,1-2.87,14c-.26.6-.52,1.19-.82,1.77a2.1,2.1,0,0,1-3.77-1.87,30.65,30.65,0,0,0,2.95-9.37c.21-1.49.24-3,.36-4.5Z" style="fill:#ea6b77"/><path d="M61.92,27.57H57.77a30.44,30.44,0,0,0-1.68-10C55.62,16.25,55,15,54.47,13.71a2.14,2.14,0,0,1,.6-2.63,2.1,2.1,0,0,1,2.59.06,2.08,2.08,0,0,1,.56.69A32.92,32.92,0,0,1,61.5,22.18C61.73,24,61.78,25.78,61.92,27.57Z" style="fill:#fea3a8"/><path d="M52.43,27.57a23.68,23.68,0,0,1-1.78,9.48,2.07,2.07,0,0,1-2.78,1.23,2.1,2.1,0,0,1-1.12-2.78,23.13,23.13,0,0,0,1.53-7.93Z" style="fill:#ea6b77"/><path d="M52.43,27.57H48.28a22.06,22.06,0,0,0-1.53-8,2.05,2.05,0,0,1,1.12-2.71A2,2,0,0,1,50.56,18a51.69,51.69,0,0,1,1.58,5.73A27.4,27.4,0,0,1,52.43,27.57Z" style="fill:#fea3a8"/></svg>