<svg xmlns="http://www.w3.org/2000/svg" viewBox="0 0 214.22 77.55"><path d="M121.35.65c-6.12,1.42-9.16,4.65-9.19,9.75,0,6,3.29,8.68,14,11.46,5.2,1.36,7,3.7,4.5,6-2.78,2.58-8.24.91-8.92-2.75-.34-1.82-.33-1.81-6-1.5l-5.07.29.25,1.59A15.75,15.75,0,0,0,115,33.21c5.13,4.39,19.26,3.94,24.09-.77l1.42-1.37.27,1.6c1,5.89,7,11.42,13.85,12.82l2.21.45-1.3,1.71c-4.31,5.64-4.43,17.18-.25,23.17,6.41,9.17,24.44,8.91,30.37-.44l.59-1.74v8h28v-9h-16v-26h-12V46c.47,3.25.39,3.84,0,3.22a16.87,16.87,0,0,0-10.39-7.27l-2.2-.45,2.24-1.68c6.94-5.22,11.27-14.74,10.16-22.37-2.92-20-31.79-20.35-42.78-.46l-1.34,2.42a21.84,21.84,0,0,1-2.2-2c-2.45-2.37-4.42-3.24-11.1-4.89-6.22-1.54-7.49-2.62-5.4-4.59s6.31-.66,7.29,2c.57,1.58.47,1.57,7.08,1.13l3.82-.26-.24-1.52C140,2.26,131.16-1.63,121.35.65ZM2.22,18.24v17.4h11v-14h1.17c1.83,0,2.94,1.35,6.48,7.89l3.3,6.11,6.56.11a42.07,42.07,0,0,0,6.3-.13C37,33.64,30,22.2,28,21l-1.07-.65,2.17-1.14c8-4.21,6.52-16.28-2.3-18.17C25.69.82,20.06.64,13.54.64H2.22V18.23ZM172.8,3.92c17.56,4.58,15.95,29.22-2.5,38.22-18.8,9.16-35.55-5.88-26.62-23.91C148.9,7.72,162.23,1.16,172.8,3.92ZM21.22,9.14c4.08,2,1.38,5.68-4.4,6l-3.6.2V8.64h3.51a15.19,15.19,0,0,1,4.49.5Zm145.37,2.69c-3.09.82-6.24,3.95-6.24,6.2,0,3.68,2.94,5,7.57,3.41,2.83-1,3.55-1,4.07,0,.89,1.66-2,3.35-3.72,2.16-.85-.6-4,1.28-4,2.41-.05,1.69,4.24,2.34,6.87,1,8.35-4.16,6-13.09-2.68-10.1-3.46,1.19-4.2,1.24-4.2.28,0-1.5,2.35-2.59,3.38-1.57.42.42,3.6-1.69,3.6-2.39,0-1-2.82-1.92-4.63-1.44Zm-12.53,8.38c-1.85,1.34-1.94,1,1.46,5.81,2.09,3,2.89,4.43,2.81,5.12-.14,1.19-1.47,1.5-2.4.57-.6-.59-.75-.54-2.16.66-3.55,3,1.85,5.66,5.86,2.84,4.41-3.1,4.42-5,0-11.42-3.4-5-3.55-5.06-5.6-3.58ZM11.61,41.64c-6.35,1-10.06,4.71-10.11,10.1S5,60.37,13.84,62.58C19.25,63.94,21,65,21,66.75c0,5-9,4.52-9.94-.55-.33-1.77-.29-1.76-6-1.45L0,65l.25,1.6c1.16,7.29,5.4,10.32,14.85,10.62,7.5.23,10.07-.49,13.34-3.76l2.24-2.24.82,1.11c4.77,6.44,20.85,6.87,26.13.7,1.54-1.8,3.27-5.2,3.45-6.76.13-1.1.09-1.12-4.62-2.55L51.72,62.3l-.63,1.92c-2.17,6.52-10.36,6.6-12.15.11a24.83,24.83,0,0,1,.13-9.75c1.64-5.48,8.52-6.61,11.32-1.84,1.16,2,.85,1.95,6.14.75,5-1.14,4.82-.93,3.67-3.41-4.55-9.8-19.86-12.1-28-4.2L30,48.08,29,46.48c-2.34-4-9.72-6.06-17.39-4.84Zm107.22,0a17.36,17.36,0,0,0-11,7c-.64.94-.65.86-.66-2.82V41.64h-11v12h-11v-12h-12v35h12v-14h11v14h10V69l2.18,1.83c5.06,7.63,20.7,9,27.81,2.38,8.24-7.62,6.62-25-2.77-29.76-3.62-1.85-10-2.66-14.61-1.85ZM17.92,48.8A4.83,4.83,0,0,1,19.75,51l.7,1.6L28,52.22l-.25,2c-.33,2.61-.48,2.71-2.65,1.75a54.73,54.73,0,0,0-6.38-2c-5.87-1.47-6.6-1.79-6.9-3-.56-2.21,3.33-3.63,6.07-2.21Zm107.56,1.37c5.75,1.59,6.91,14.78,1.58,17.92a6.86,6.86,0,0,1-10.19-4C114.52,55.33,118.87,48.33,125.48,50.17Zm46.92,0c6.68,1.85,6.54,16.86-.17,18.66-5.39,1.46-9-2.29-9-9.35,0-7.33,3.51-10.87,9.13-9.31Z" style="fill:#00507d"/></svg>