<svg xmlns="http://www.w3.org/2000/svg" viewBox="0 0 49.61 49.61"><rect width="49.61" height="49.61" style="fill:#3fa9f5;fill-opacity:0"/><path d="M25.25,2.36A22.32,22.32,0,0,0,2.71,24.44a22.09,22.09,0,0,0,15.41,21c1.13.21,1.54-.47,1.54-1.06V40.59c-6.28,1.33-7.61-3-7.61-3a5.82,5.82,0,0,0-2.5-3.24c-2.05-1.36.17-1.34.17-1.34a4.78,4.78,0,0,1,3.44,2.28,4.85,4.85,0,0,0,6.56,1.82,4.77,4.77,0,0,1,1.43-2.95c-5-.55-10.25-2.44-10.25-10.9a8.56,8.56,0,0,1,2.28-6,7.77,7.77,0,0,1,.22-5.82s1.91-.59,6.15,2.26a21.79,21.79,0,0,1,11.28,0c4.3-2.85,6.15-2.26,6.15-2.26a7.72,7.72,0,0,1,.22,5.82,8.53,8.53,0,0,1,2.4,5.93c0,8.48-5.29,10.35-10.25,10.9a5.15,5.15,0,0,1,1.54,4.1v6c0,.71.41,1.29,1.54,1.06A22.13,22.13,0,0,0,47.8,24.44,22.33,22.33,0,0,0,25.25,2.36" style="fill:#3fa9f5"/></svg>