<svg xmlns="http://www.w3.org/2000/svg" viewBox="0 0 71 71"><path d="M6.18,40A4.63,4.63,0,0,1,.49,37.67a4.82,4.82,0,0,1,1-5.55Q3.52,30,5.61,27.94,17.47,16,29.37,4.09C30.9,2.57,32.21.74,34.39,0h1.8a7.6,7.6,0,0,1,3.67,2.43c2.78,2.83,5.6,5.62,8.41,8.43l4.81,4.77a2.92,2.92,0,0,0,.21.28q3.76,3.78,7.54,7.54a1.8,1.8,0,0,0,.4.25,8.06,8.06,0,0,0,.52.64c2.15,2.15,4.29,4.3,6.45,6.44,1.15,1.14,2.36,2.23,2.8,3.89v1.8l-.39.93a4.58,4.58,0,0,1-5.48,2.67c-.31-.08-.62-.19-.92-.28-.72-.6-1.49-1.16-2.16-1.82Q49.08,25,36.14,12.06a3.75,3.75,0,0,1-.47-.77l-.8.77Q21.67,25.26,8.45,38.45A15,15,0,0,1,6.18,40Z" style="fill:#f2705a"/><path d="M12.59,71H6.23V44.79A6.15,6.15,0,0,0,7,44.24L34.58,16.66c.21-.21.42-.4.76-.71a7.27,7.27,0,0,0,.55.73Q49.72,30.53,63.57,44.36c.19.2.41.38.61.56,0,2,0,4.07,0,6.1V70.94c-.21,0-.39.06-.56.06H30.38L30,71c0-5.62,0-11.23,0-16.85a10.33,10.33,0,0,0-.19-1.92,8.69,8.69,0,0,0-17.23,1.24C12.55,59.29,12.59,65.14,12.59,71ZM57.93,65V45.14H35.26V65Z" style="fill:#fed05c"/><path d="M12.59,71c0-5.84,0-11.69,0-17.53a8.69,8.69,0,0,1,17.23-1.24A10.33,10.33,0,0,1,30,54.13c0,5.62,0,11.23,0,16.85l-9.83,0Z" style="fill:#415a6b"/><path d="M64.18,44.92c-.2-.18-.42-.36-.61-.56Q49.73,30.53,35.89,16.68a7.27,7.27,0,0,1-.55-.73c-.34.31-.55.5-.76.71L7,44.24a6.15,6.15,0,0,1-.76.55c0-1.6,0-3.21-.05-4.81a15,15,0,0,0,2.27-1.53Q21.68,25.28,34.87,12.06l.8-.77a3.75,3.75,0,0,0,.47.77Q49.09,25,62.05,38c.67.66,1.44,1.22,2.16,1.82Z" style="fill:#f6b54c"/><path d="M53.08,15.63l0-5h8.16q0,6.1,0,12.2c0,.28,0,.56,0,.83a1.8,1.8,0,0,1-.4-.25q-3.78-3.76-7.54-7.54A2.92,2.92,0,0,1,53.08,15.63Z" style="fill:#ef5540"/><path d="M61.26,10.67H50.07V3H64.3v7.68Z" style="fill:#f2705a"/><path d="M57.93,65H35.26V45.14H57.93ZM37.62,47.54V62.66h7.72V47.54Zm10.23,0V62.66h7.72V47.53Z" style="fill:#364c60"/><path d="M37.62,47.54h7.72V62.66H37.62Z" style="fill:#89d6f6"/><path d="M47.85,47.53h7.72V62.66H47.85Z" style="fill:#89d6f6"/></svg>