<svg xmlns="http://www.w3.org/2000/svg" viewBox="0 0 62.24 68.78"><path d="M5.38,0H30.63c0,3.51,0,7,0,10.54,0,3.08,2.07,5.38,5,5.43,3.4,0,6.8,0,10.2,0a2.64,2.64,0,0,1,.11.56V30.78c-.31,0-.63,0-.94,0a18.69,18.69,0,0,0-8.35,1.07,22.1,22.1,0,0,0-5.41,3,4.13,4.13,0,0,0-1.36-.56c-6.36,0-12.72,0-19.07,0a2.33,2.33,0,0,0-.53.06,1.44,1.44,0,0,0-1.13,1.54,1.46,1.46,0,0,0,1.28,1.35,8.42,8.42,0,0,0,.87,0l17.46,0-3,4.79a8.57,8.57,0,0,0-1.12-.14H11.14a4.54,4.54,0,0,0-.74,0,1.44,1.44,0,0,0-1.27,1.34,1.4,1.4,0,0,0,1.07,1.51,3.51,3.51,0,0,0,.92.09H24.73c0,.11,0,.23,0,.33a19,19,0,0,0-.42,6.72,19.83,19.83,0,0,0,2.14,6.85H7a6.89,6.89,0,0,1-4.39-1.37A6.64,6.64,0,0,1,0,51.84V24.18c0-5.75,0-11.5,0-17.26A6.53,6.53,0,0,1,3.79.63C4.29.38,4.84.21,5.38,0ZM18.14,26.75h-7a3.67,3.67,0,0,0-1,.11,1.42,1.42,0,0,0-1.05,1.45,1.44,1.44,0,0,0,1.1,1.36,4.83,4.83,0,0,0,1,.09H25.1a4.83,4.83,0,0,0,1-.09,1.46,1.46,0,0,0,1.12-1.41,1.45,1.45,0,0,0-1-1.4,4.12,4.12,0,0,0-1-.11Z" style="fill:#00abe9"/><path d="M30.76,0c.17.22.33.46.52.67L45.65,15.76a1.66,1.66,0,0,1,.16.21c-3.4,0-6.8,0-10.2,0-2.9-.05-5-2.35-5-5.43,0-3.51,0-7,0-10.54Z" style="fill:#01eed0"/><path d="M45.92,30.78A36.25,36.25,0,0,1,50.09,32c6.82,2.82,10.93,7.89,12,15.2A19,19,0,0,1,26.84,59.46l-.42-.69a19.83,19.83,0,0,1-2.14-6.85,19,19,0,0,1,.42-6.72c0-.1,0-.22,0-.33l1-2.84,3-4.79,2.48-2.41a22.1,22.1,0,0,1,5.41-3A18.69,18.69,0,0,1,45,30.74C45.29,30.77,45.61,30.77,45.92,30.78Zm-1.2,17.53c0-1.45,0-2.81,0-4.18a3.61,3.61,0,0,0-.1-.86,1.42,1.42,0,0,0-1.48-1.09,1.41,1.41,0,0,0-1.36,1.25c-.06.76,0,1.52-.05,2.28v2.6h-.88c-1.29,0-2.59,0-3.89,0a1.41,1.41,0,0,0-1.36,1.39,1.44,1.44,0,0,0,1.19,1.48,3.53,3.53,0,0,0,.86.08c1.34,0,2.67,0,4.08,0v.92c0,1.28,0,2.56.05,3.83a1.41,1.41,0,0,0,1.39,1.3,1.45,1.45,0,0,0,1.46-1.13,4.13,4.13,0,0,0,.09-.93c0-1.31,0-2.62,0-4,1,0,2,0,3,0a14.07,14.07,0,0,0,2.06-.13,1.38,1.38,0,0,0,1-1.46,1.48,1.48,0,0,0-1.2-1.35,6.11,6.11,0,0,0-.86,0Z" style="fill:#fdda41"/><path d="M31.22,34.83l-2.48,2.41-17.46,0a8.42,8.42,0,0,1-.87,0,1.46,1.46,0,0,1-1.28-1.35,1.44,1.44,0,0,1,1.13-1.54,2.33,2.33,0,0,1,.53-.06c6.35,0,12.71,0,19.07,0A4.13,4.13,0,0,1,31.22,34.83Z" style="fill:#083863"/><path d="M18.14,26.75h7a4.12,4.12,0,0,1,1,.11,1.45,1.45,0,0,1,1,1.4,1.46,1.46,0,0,1-1.12,1.41,4.83,4.83,0,0,1-1,.09H11.22a4.83,4.83,0,0,1-1-.09,1.44,1.44,0,0,1-1.1-1.36,1.42,1.42,0,0,1,1.05-1.45,3.67,3.67,0,0,1,1-.11Z" style="fill:#083b67"/><path d="M25.73,42l-1,2.84H11.12a3.51,3.51,0,0,1-.92-.09,1.4,1.4,0,0,1-1.07-1.51,1.44,1.44,0,0,1,1.27-1.34,4.54,4.54,0,0,1,.74,0H24.61A8.57,8.57,0,0,1,25.73,42Z" style="fill:#083863"/><path d="M44.72,48.31h4a6.11,6.11,0,0,1,.86,0,1.48,1.48,0,0,1,1.2,1.35,1.38,1.38,0,0,1-1,1.46,14.07,14.07,0,0,1-2.06.13c-1,0-1.92,0-3,0,0,1.37,0,2.68,0,4a4.13,4.13,0,0,1-.09.93,1.45,1.45,0,0,1-1.46,1.13,1.41,1.41,0,0,1-1.39-1.3c-.06-1.27,0-2.55-.05-3.83V51.3c-1.41,0-2.74,0-4.08,0a3.53,3.53,0,0,1-.86-.08,1.44,1.44,0,0,1-1.19-1.48A1.41,1.41,0,0,1,37,48.35c1.3-.05,2.6,0,3.89,0h.88v-2.6c0-.76,0-1.52.05-2.28a1.41,1.41,0,0,1,1.36-1.25,1.42,1.42,0,0,1,1.48,1.09,3.61,3.61,0,0,1,.1.86C44.73,45.5,44.72,46.86,44.72,48.31Z" style="fill:#0a3962"/></svg>