<?xml version="1.0" encoding="utf-8"?>
<!-- Svg Vector Icons : http://www.onlinewebfonts.com/icon -->
<!DOCTYPE svg PUBLIC "-//W3C//DTD SVG 1.1//EN" "http://www.w3.org/Graphics/SVG/1.1/DTD/svg11.dtd">
<svg fill="#00507d" version="1.1" xmlns="http://www.w3.org/2000/svg" xmlns:xlink="http://www.w3.org/1999/xlink" x="0px" y="0px" viewBox="0 0 1000 1000" enable-background="new 0 0 1000 1000" xml:space="preserve">
<metadata> Svg Vector Icons : http://www.onlinewebfonts.com/icon </metadata>
<g><path d="M557.4,641.6c0,21-11.9,38.6-28.7,48.6v123.7h-57.4V690.2c-16.9-10-28.7-27.6-28.7-48.6c0-31.7,25.7-57.4,57.4-57.4C531.6,584.2,557.4,609.8,557.4,641.6z M872.9,497.4v406.5c0,47.5-38.6,86.1-86.1,86.1H213.3c-47.5,0-86.1-38.6-86.1-86.1V497.4c0-47.5,38.6-86.1,86.1-86.1h516.4V297.1c0-126.7-103-229.7-229.7-229.7c-126.7,0-229.7,103-229.7,229.7h-57.4C212.9,138.8,341.7,10,500,10c158.3,0,287.1,128.8,287.1,287.1v114.1C834.4,411.5,872.9,450,872.9,497.4L872.9,497.4z M815.5,497.4c0-15.8-12.9-28.7-28.7-28.7H213.3c-15.8,0-28.7,12.9-28.7,28.7v406.5c0,15.8,12.9,28.7,28.7,28.7h573.5c15.8,0,28.7-12.9,28.7-28.7V497.4z"/></g>
</svg>