<svg xmlns="http://www.w3.org/2000/svg" viewBox="0 0 62.88 62.88"><path d="M42.74,62.88H40.89a6.21,6.21,0,0,0-.59-.26,5.21,5.21,0,0,1-3.58-4.46c0-1,0-2.08,0-3.12q0-22.26,0-44.51a5.12,5.12,0,0,1,3.6-5c5.5-1.84,11-3.65,16.54-5.48,3.63-.2,6,2.05,6,5.67V52.05A5.27,5.27,0,0,1,59,57.49Z" style="fill:#64b4f5"/><path d="M0,25.67a3,3,0,0,1,3.25-2.11c3,.07,6.06,0,9.08,0h.75c0-.24,0-.46,0-.67,0-2.29,0-4.58,0-6.87a2.67,2.67,0,0,1,1.6-2.72,2.64,2.64,0,0,1,3.11.79l10,10a2.65,2.65,0,0,1,0,4.14q-5.07,5.09-10.16,10.15a2.6,2.6,0,0,1-4.35-.74,3.62,3.62,0,0,1-.2-1.32c0-2.27,0-4.54,0-6.81v-.72h-.8c-3,0-6,0-9,0A3.06,3.06,0,0,1,0,26.77Z" style="fill:#607d8b"/><path d="M36.72,55,29,55A7.85,7.85,0,0,1,21,47c0-1.33,0-2.66,0-4a1.17,1.17,0,0,1,.31-.73c3.49-3.51,7-7,10.49-10.52a7.78,7.78,0,0,0-.05-11.09c-3.47-3.5-7-7-10.46-10.47a.8.8,0,0,1-.28-.5,20.91,20.91,0,0,1,.29-3.89A7.64,7.64,0,0,1,28.48,0c9.4,0,18.79,0,28.18,0h.19c-5.52,1.83-11,3.64-16.54,5.48a5.12,5.12,0,0,0-3.6,5Q36.71,32.79,36.72,55Z" style="fill:#2196f2"/></svg>