<svg xmlns="http://www.w3.org/2000/svg" viewBox="0 0 149.86 115.75"><path d="M44.79,85c-10.75,0-21.51.1-32.26,0A13.07,13.07,0,0,1,.59,75.83C.41,75.29.2,74.77,0,74.24V57.85H44.76Z" style="fill:#00c6fe"/><path d="M44.76,57.85H0V41.45c.26-.66.53-1.32.77-2A13,13,0,0,1,12.92,30.7c10.63-.08,21.27,0,31.9,0l.06,27.16Z" style="fill:#2ca0fe"/><path d="M44.79,85l0-27.16h5.82l38.49,0A8.9,8.9,0,0,1,89.22,59q0,25.8,0,51.62c0,2.81-1.27,4.54-3.67,5.09a4.62,4.62,0,0,1-4-1.25q-16-12.8-31.95-25.58Z" style="fill:#c61a0e"/><path d="M89.07,57.81l-38.49,0h-5.7L44.82,30.7,81.48,1.38C83.62-.33,85.8-.46,87.6,1.05a4.87,4.87,0,0,1,1.51,4.09q0,16.68,0,33.36Z" style="fill:#e43f37"/><path d="M149.85,57.87a90,90,0,0,1-7.09,35.81c-1.34,3.24-3,6.35-4.56,9.47-1.28,2.52-3.86,3.41-6.12,2.22A4.45,4.45,0,0,1,130.41,99a84,84,0,0,0,10.05-31c.41-3.33.47-6.7.68-10.05Z" style="fill:#ea6b77"/><path d="M149.85,57.87h-8.71a82,82,0,0,0-5.09-28.69c-1.63-4.32-3.73-8.46-5.68-12.65-1.36-2.92-.18-5.74,2.83-6.55a4.14,4.14,0,0,1,4.53,1.89c2,3.85,4,7.71,5.63,11.7a87.83,87.83,0,0,1,5.87,23.1C149.67,50.37,149.66,54.13,149.85,57.87Z" style="fill:#fea3a8"/><path d="M130,57.87a70.27,70.27,0,0,1-6,29.32c-.54,1.25-1.09,2.5-1.73,3.7A4.42,4.42,0,0,1,114.29,87a64,64,0,0,0,6.19-19.65c.44-3.12.52-6.29.76-9.44Z" style="fill:#ea6b77"/><path d="M130,57.87h-8.71a63.41,63.41,0,0,0-3.53-21c-1-2.74-2.26-5.38-3.4-8.07a4.52,4.52,0,0,1,1.28-5.53,4.49,4.49,0,0,1,6.61,1.58,69.34,69.34,0,0,1,6.88,21.73C129.56,50.3,129.67,54.1,130,57.87Z" style="fill:#fea3a8"/><path d="M110.05,57.87a49.66,49.66,0,0,1-3.75,19.89,4.35,4.35,0,0,1-5.83,2.59,4.44,4.44,0,0,1-2.36-5.84,48.57,48.57,0,0,0,3.22-16.64Z" style="fill:#ea6b77"/><path d="M110.05,57.87h-8.72a46.28,46.28,0,0,0-3.22-16.76,4.32,4.32,0,0,1,2.36-5.69,4.11,4.11,0,0,1,5.65,2.32,104.79,104.79,0,0,1,3.3,12A60.48,60.48,0,0,1,110.05,57.87Z" style="fill:#fea3a8"/></svg>