<svg xmlns="http://www.w3.org/2000/svg" viewBox="0 0 245.53 229.35"><path d="M211.7,170c3.51,0,7,.06,10.53,0a4,4,0,0,1,3.75,1.94c6.46,9.28,13,18.5,19.55,27.73v.48c-3.4,4.72-6.81,9.42-10.18,14.15-3.24,4.55-6.4,9.17-9.7,13.67a3.56,3.56,0,0,1-2.44,1.38q-50.1.09-100.21,0a1.81,1.81,0,0,1-.23,0,10.25,10.25,0,0,1,1.34-.38c4.71-.66,9.48-1,14.13-2,18.69-3.86,35-12.52,49.19-25.17A109.29,109.29,0,0,0,211.7,170Z" style="fill:#fedf7d"/><path d="M211.7,170a109.29,109.29,0,0,1-24.27,31.73c-14.18,12.65-30.5,21.31-49.19,25.17-4.65,1-9.42,1.35-14.13,2a10.25,10.25,0,0,0-1.34.38H70.07q9.71-13.89,19.4-27.77c.61-.88,1.49-1.56.49-2.89-2.39-3.17-4.63-6.47-6.89-9.73q-6.52-9.4-13-18.82c1,0,2.06-.08,3.09-.08q17.39,0,34.78-.06H120.4a4.19,4.19,0,0,0,1.31.4c7.4-.28,14.86,0,22.16-1,13.11-1.78,23.43-8.68,31.26-19.27,8.17-11.06,10.81-23.62,8.39-36.91-2.89-15.87-12-27.47-26.4-34.89-11.07-5.73-23-4.87-34.88-4.6-.13,0-.25.18-.38.27l-3.33-.12-3.32-.34C111.59,68.19,108,63,104.35,57.73c-3.26-4.68-6.56-9.34-9.75-13.9l18.64-26.9c1.15-.6,2.69-.86,2.26-2.75a105.87,105.87,0,0,1,51.11,12.93c-.39.77-.75,1.56-1.19,2.31a13.65,13.65,0,0,0,1.12,15.65c4.34,5.5,8.58,11.08,12.91,16.59,3.45,4.38,6.71,8.94,10.52,13a12.35,12.35,0,0,0,17.76-.16l2.76-2.95A103.43,103.43,0,0,1,222,107.74C224.88,129.53,221.2,150.24,211.7,170Z" style="fill:#e18086"/><path d="M70.07,170.06q6.5,9.41,13,18.82c2.26,3.26,4.5,6.56,6.89,9.73,1,1.33.12,2-.49,2.89q-9.69,13.89-19.4,27.77l-50.9,0c-5.25-2.14-7.18-6.38-7.14-11.7.1-12.88.32-25.76.43-38.64,0-3.48,1.73-5.81,4.51-7.59.63-.41,1.18-.93,1.76-1.39l.05-.12,20.58.06h3.33Z" style="fill:#a1e09f"/><path d="M39.36,169.91l-20.58-.06c-2.75-7.8-6-15.46-8.14-23.41-3-10.89-3.46-22.09-2.55-33.4A104,104,0,0,1,26,61.77C42.61,37.39,65.5,22.09,94.41,16.18c6.88-1.41,14-1.37,21.09-2,.43,1.89-1.11,2.15-2.26,2.75a22.29,22.29,0,0,0-2.59.28A104,104,0,0,0,81.92,28.69,107.52,107.52,0,0,0,54.18,51.81a107.63,107.63,0,0,0-25.79,67,84.06,84.06,0,0,0,1,16.16,206.94,206.94,0,0,0,4.84,21.55C35.48,161.13,37.61,165.47,39.36,169.91Z" style="fill:#80b4fa"/><path d="M210.49,71.54l-2.76,2.95c-5.95.31-10.39-2.25-13.72-7.07-1.26-1.82-2.77-3.46-4.12-5.23-5.7-7.42-11.5-14.76-17-22.34-1.3-1.8-1.7-4.36-2.14-6.63-.69-3.6,1.2-6.59,2.83-9.58,5.37-1.42,10.41.54,14.2,5.43,3.06,4,6.18,7.85,9.28,11.78l3.89,4.2c.72-1,1.29-1.65,1.7-2.38,5.86-10.4,11.62-20.88,17.6-31.22,2.67-4.62,6.63-7.53,12.35-7,2,.18,3.9.6,5.84.91,3.48,4.64,3.69,9.6.95,14.53-7.82,14.05-15.8,28-23.69,42C213.92,65.09,212.23,68.33,210.49,71.54Z" style="fill:#a2e09f"/><path d="M18.73,170c-.58.46-1.13,1-1.76,1.39-2.78,1.78-4.48,4.11-4.51,7.59-.11,12.88-.33,25.76-.43,38.64,0,5.32,1.89,9.56,7.14,11.7-3.51,0-7,.1-10.53,0A9.12,9.12,0,0,1,0,220.66Q0,199.83,0,179c0-5,4.2-8.88,9.59-9C12.66,169.86,15.7,170,18.73,170Z" style="fill:#97ce92"/><path d="M173.6,23.64c-1.63,3-3.52,6-2.83,9.58.44,2.27.84,4.83,2.14,6.63,5.48,7.58,11.28,14.92,17,22.34,1.35,1.77,2.86,3.41,4.12,5.23,3.33,4.82,7.77,7.38,13.72,7.07a12.35,12.35,0,0,1-17.76.16c-3.81-4.05-7.07-8.61-10.52-13-4.33-5.51-8.57-11.09-12.91-16.59a13.65,13.65,0,0,1-1.12-15.65c.44-.75.8-1.54,1.19-2.31Z" style="fill:#97ce92"/><path d="M238.46,5.37c-1.94-.31-3.88-.73-5.84-.91-5.72-.54-9.68,2.37-12.35,7-6,10.34-11.74,20.82-17.6,31.22-.41.73-1,1.37-1.7,2.38l-3.89-4.2q9.48-16.74,19-33.48c4.4-7.78,13.4-9.71,20.38-4.29A16,16,0,0,1,238.46,5.37Z" style="fill:#97ce92"/><path d="M39.36,169.91c-1.75-4.44-3.88-8.78-5.15-13.35A206.94,206.94,0,0,1,29.37,135a84.06,84.06,0,0,1-1-16.16A107.63,107.63,0,0,1,81.92,28.69a104,104,0,0,1,28.73-11.48,22.29,22.29,0,0,1,2.59-.28L94.6,43.83c3.19,4.56,6.49,9.22,9.75,13.9,3.64,5.22,7.24,10.46,10.86,15.7-2.46.17-4.94.18-7.36.55A47.1,47.1,0,0,0,76.28,93.19a45.92,45.92,0,0,0-8.6,36.4c3.13,18.19,13.74,30.57,30.76,37.46,3.06,1.23,6.33,1.93,9.5,2.87q-17.39,0-34.78.06c-1,0-2.06.05-3.09.08l-27.38-.14Z" style="fill:#9cc5fa"/><path d="M118.53,73.77l3.33.12c.86.17,1.71.36,2.57.51a48,48,0,0,1,39,43.52,46.45,46.45,0,0,1-11.64,35.36c-8.22,9.42-18.53,15.16-31.17,16.26-1.72-.3-3.46-.49-5.14-.91a47.77,47.77,0,0,1-27-18.06,46,46,0,0,1-9.38-25.77c2.83.16,5.67.4,8.5.46A3.58,3.58,0,0,0,91.09,122a3.53,3.53,0,0,0-3.2-3.82c-2.91,0-5.83.26-8.75.42a48.23,48.23,0,0,1,35-43.27C115.63,74.89,117.07,74.29,118.53,73.77Zm-3.35,43.06a24.82,24.82,0,0,0-1.81-2.39q-9-9-18-18c-2.14-2.12-4.17-2.26-5.87-.54s-1.54,3.73.6,5.87q11,11.06,22,22c2.19,2.17,4.24,2.13,6.47-.06q5.57-5.48,11-11c2-2,2.11-4,.52-5.7s-3.76-1.54-5.84.53C121.44,110.47,118.6,113.38,115.18,116.83Zm3.76-26.15c0-1,.06-2.06,0-3.09a3.59,3.59,0,0,0-3.55-3.48,3.54,3.54,0,0,0-3.59,3.43,62.69,62.69,0,0,0,0,6.43,3.58,3.58,0,0,0,7.15,0C119,92.91,118.94,91.8,118.94,90.68Zm27.52,34.61c1,0,1.91,0,2.86,0a3.68,3.68,0,0,0,3.65-3.58,3.62,3.62,0,0,0-3.45-3.59c-2.14-.11-4.29-.1-6.43,0a3.88,3.88,0,0,0-3.46,3.61,3.6,3.6,0,0,0,3.5,3.54C144.23,125.35,145.35,125.29,146.46,125.29Zm-27.52,27.45h0a28.16,28.16,0,0,0,0-3.56c-.24-2-1.54-2.8-3.48-2.83s-3.4.72-3.58,2.7a42.44,42.44,0,0,0,0,7.13,3.43,3.43,0,0,0,3.84,3.1c2-.37,3.37-1.39,3.29-3.68C118.92,154.65,118.94,153.7,118.94,152.74Z" style="fill:#c6eafc"/><path d="M120.66,169.54c12.64-1.1,23-6.84,31.17-16.26a46.45,46.45,0,0,0,11.64-35.36,48,48,0,0,0-39-43.52c-.86-.15-1.71-.34-2.57-.51.13-.09.25-.27.38-.27,11.86-.27,23.81-1.13,34.88,4.6,14.36,7.42,23.51,19,26.4,34.89,2.42,13.29-.22,25.85-8.39,36.91-7.83,10.59-18.15,17.49-31.26,19.27-7.3,1-14.76.75-22.16,1a4.19,4.19,0,0,1-1.31-.4A1.42,1.42,0,0,0,120.66,169.54Z" style="fill:#dc636e"/><path d="M120.66,169.54a1.42,1.42,0,0,1-.26.38H107.94c-3.17-.94-6.44-1.64-9.5-2.87-17-6.89-27.63-19.27-30.76-37.46a45.92,45.92,0,0,1,8.6-36.4A47.1,47.1,0,0,1,107.85,74c2.42-.37,4.9-.38,7.36-.55l3.32.34c-1.46.52-2.9,1.12-4.38,1.55a48.23,48.23,0,0,0-35,43.27c-1.87,2.07-1.84,4.14,0,6.21a46,46,0,0,0,9.38,25.77,47.77,47.77,0,0,0,27,18.06C117.2,169.05,118.94,169.24,120.66,169.54Z" style="fill:#b5dcec"/><path d="M115.18,116.83c3.42-3.45,6.26-6.36,9.15-9.23,2.08-2.07,4.21-2.24,5.84-.53s1.45,3.71-.52,5.7q-5.46,5.55-11,11c-2.23,2.19-4.28,2.23-6.47.06q-11.05-11-22-22c-2.14-2.14-2.29-4.16-.6-5.87s3.73-1.58,5.87.54q9,8.94,18,18A24.82,24.82,0,0,1,115.18,116.83Z" style="fill:#4c82ab"/><path d="M79.14,124.8c-1.84-2.07-1.87-4.14,0-6.21,2.92-.16,5.84-.47,8.75-.42a3.53,3.53,0,0,1,3.2,3.82,3.58,3.58,0,0,1-3.45,3.27C84.81,125.2,82,125,79.14,124.8Z" style="fill:#9cc5fa"/><path d="M118.94,90.68c0,1.12.07,2.23,0,3.34a3.58,3.58,0,0,1-7.15,0,62.69,62.69,0,0,1,0-6.43,3.54,3.54,0,0,1,3.59-3.43,3.59,3.59,0,0,1,3.55,3.48C119,88.62,118.94,89.65,118.94,90.68Z" style="fill:#9cc5fa"/><path d="M146.46,125.29c-1.11,0-2.23.06-3.33,0a3.6,3.6,0,0,1-3.5-3.54,3.88,3.88,0,0,1,3.46-3.61c2.14-.1,4.29-.11,6.43,0a3.62,3.62,0,0,1,3.45,3.59,3.68,3.68,0,0,1-3.65,3.58C148.37,125.32,147.42,125.29,146.46,125.29Z" style="fill:#9cc5fa"/><path d="M118.94,152.74c0,1,0,1.91,0,2.86.08,2.29-1.34,3.31-3.29,3.68a3.43,3.43,0,0,1-3.84-3.1,42.44,42.44,0,0,1,0-7.13c.18-2,1.66-2.72,3.58-2.7s3.24.85,3.48,2.83a28.16,28.16,0,0,1,0,3.56Z" style="fill:#9cc5fa"/></svg>