<svg xmlns="http://www.w3.org/2000/svg" viewBox="0 0 73.21 73.18"><path d="M38.05,22.07c-1.33,1.46-2.65,2.93-4,4.39-3.16,3.45-6.34,6.87-9.47,10.35a3.59,3.59,0,0,1-2.93,1.28q-7.14-.08-14.28,0c-1.16,0-2-.53-1.85-1.86a12.71,12.71,0,0,0,0-1.38A1.42,1.42,0,0,1,7,33.34c1.12,0,2.24,0,3.36,0,3.42,0,6.84,0,10.26,0a1.26,1.26,0,0,0,1-.43Q28.36,25.59,35.1,18.3a7,7,0,0,1,1.52-1c.14.07.28.2.42.2q4.73,0,9.45,0c.15,0,.3-.16.45-.24L58.81,5.4a5,5,0,0,1,.51-.4l-.07-.21h-.6c-1.42,0-2.84,0-4.26-.08A1.31,1.31,0,0,1,53.3,3.5c0-.66,0-1.32,0-2A1.4,1.4,0,0,1,54.72,0c3.48,0,7-.07,10.44,0a2.18,2.18,0,0,1,2.39,2.41c.07,3.4,0,6.79,0,10.19A1.48,1.48,0,0,1,66,14.29c-.45,0-.9.11-1.35.12a1.72,1.72,0,0,1-1.85-1.81V8.2l-.59.58q-6.15,6.14-12.3,12.29a2.52,2.52,0,0,1-1.76.91,1.36,1.36,0,0,0-.37-.13H38.48C38.33,21.86,38.19,22,38.05,22.07Z" style="fill:#dd5890"/><path d="M34.24,68.38H39a2.77,2.77,0,0,0,.56.11H50.33a3.78,3.78,0,0,0,.57-.1H67.58l3.71,0c1.44,0,1.95.51,1.92,2a13.83,13.83,0,0,1-.16,1.82c-.08.63-.74.9-1.31,1a1.38,1.38,0,0,1-.29,0H1.79a1.52,1.52,0,0,1-1.42-.56A1.87,1.87,0,0,1,0,71.78c0-.6,0-1.2,0-1.8a1.37,1.37,0,0,1,1.4-1.53c1.15-.06,2.31,0,3.47,0,.26,0,.52,0,.78,0l2.28,0,9.64,0h4.75l2.93,0Z" style="fill:#4073c7"/><path d="M67.58,68.38H55.82V43.91a3.24,3.24,0,0,1,.38-.36c.95-.66,1.93-1.27,2.84-2,1.65-1.27,3.29-2.56,4.87-3.92,1-.87,1.89-1.87,2.84-2.8.25-.24.55-.44.82-.66,0,.18,0,.36,0,.54v33.1C67.59,68,67.58,68.2,67.58,68.38Z" style="fill:#b6e345"/><path d="M50.9,68.38a3.78,3.78,0,0,1-.57.1H39.57a2.77,2.77,0,0,1-.56-.11q0-7.92,0-15.82l.24-.12c.61-.23,1.23-.44,1.82-.72q3.06-1.41,6.09-2.88c1.25-.61,2.48-1.27,3.72-1.91q0,6.64,0,13.31C50.91,62.94,50.9,65.66,50.9,68.38Z" style="fill:#80b4fa"/><path d="M50.89,46.92c-1.24.64-2.47,1.3-3.72,1.91q-3,1.47-6.09,2.88c-.59.28-1.21.49-1.82.72q0-8.2,0-16.43a3.76,3.76,0,0,0-.14-.73,1.42,1.42,0,0,1,1.48-1.06c2.84,0,5.68,0,8.52,0,1.29,0,1.79.57,1.79,1.86C50.9,39.69,50.89,43.3,50.89,46.92Z" style="fill:#9cc5fa"/><path d="M34.23,54.47v.11l-1.58.47c-2.41.73-4.81,1.49-7.23,2.19-1,.29-2,.48-3.06.71,0-1.44,0-2.88,0-4.31V44.7a1.42,1.42,0,0,1,1.51-1.53q4.44,0,8.88,0A1.12,1.12,0,0,1,34,44a8,8,0,0,1,.1.82c0,3,0,6,0,9A4,4,0,0,0,34.23,54.47Z" style="fill:#e39542"/><path d="M22.36,58c1-.23,2.05-.42,3.06-.71,2.42-.7,4.82-1.46,7.23-2.19l1.58-.47c0,3.25,0,6.49,0,9.74,0,1.35,0,2.7,0,4.06l-9,0-2.93,0Z" style="fill:#e18424"/><path d="M67.57,34.2c-.27.22-.57.42-.82.66-1,.93-1.84,1.93-2.84,2.8C62.33,39,60.69,40.31,59,41.58c-.91.7-1.89,1.31-2.84,2a3.24,3.24,0,0,0-.38.36h-.14V30c0-1.2.5-1.7,1.71-1.7h8.52A1.45,1.45,0,0,1,67.57,30C67.58,31.37,67.57,32.79,67.57,34.2Z" style="fill:#c7e973"/><path d="M16.36,50.36c1,.4,1.2.65,1.19,1.72q0,3.47,0,7a2.85,2.85,0,0,1-.39.11c-1.86.29-3.72.62-5.59.85s-3.91.41-5.86.61c0-3,0-5.9,0-8.85a1.35,1.35,0,0,1,1.16-1.39c.93,0,1.86,0,2.8,0Z" style="fill:#f5e166"/><path d="M5.69,60.6c1.95-.2,3.91-.36,5.86-.61s3.73-.56,5.59-.85a2.85,2.85,0,0,0,.39-.11.58.58,0,0,1,.08.22l0,9.13-9.64,0-2.28,0Z" style="fill:#f0d233"/><path d="M55.68,43.91h.14V68.37h-.18l0-.13q0-4.81,0-9.63v-14C55.61,44.38,55.66,44.14,55.68,43.91Z" style="fill:#c8f751"/><path d="M39.11,35.27a3.76,3.76,0,0,1,.14.73q0,8.22,0,16.43l-.24.12q0-8.41,0-16.82A2.36,2.36,0,0,1,39.11,35.27Z" style="fill:#a8cffc"/><path d="M46.94,17.28c-.15.08-.3.24-.45.24q-4.73,0-9.45,0c-.14,0-.28-.13-.42-.2,1.73,0,3.46,0,5.18,0S45.23,17.28,46.94,17.28Z" style="fill:#e5629a"/><path d="M38.05,22.07c.14-.08.28-.21.43-.21h9.29a1.36,1.36,0,0,1,.37.13,5.35,5.35,0,0,1-.7.07Z" style="fill:#e5629a"/><path d="M34.23,54.47a4,4,0,0,1-.13-.67c0-3,0-6,0-9A8,8,0,0,0,34,44a2.84,2.84,0,0,1,.24.73C34.24,48,34.23,51.23,34.23,54.47Z" style="fill:#e7a45e"/><path d="M16.36,50.36l-6.73,0c-.94,0-1.87,0-2.8,0a3,3,0,0,1,.51-.09c2.84,0,5.67,0,8.51,0A3,3,0,0,1,16.36,50.36Z" style="fill:#f8ea95"/><path d="M55.59,68.25l0,.13h-.18Z" style="fill:#ecf4fd"/></svg>